<svg width="200" height="200" viewBox="0 0 200 200" fill="none" xmlns="http://www.w3.org/2000/svg">
<g clip-path="url(#clip0_1565_1029)">
<path d="M100.713 -0.0687256C59.7188 -0.0687256 25 34.85 25 76.2063C25 119.519 65.2438 163.813 92.3125 194.944C92.4188 195.069 96.7938 199.925 102.181 199.925H102.656C108.05 199.925 112.394 195.069 112.5 194.944C137.9 165.744 175 117.588 175 76.2063C175 34.8438 147.919 -0.0687256 100.713 -0.0687256ZM103.219 186.556C103 186.775 102.681 187.019 102.4 187.225C102.113 187.025 101.8 186.775 101.569 186.556L98.3 182.794C72.6375 153.356 37.4938 113.038 37.4938 76.2C37.4938 41.625 66.4438 12.4188 100.706 12.4188C143.388 12.4188 162.494 44.45 162.494 76.2C162.494 104.163 142.55 141.3 103.219 186.556ZM100.219 37.775C79.5125 37.775 62.7187 54.5625 62.7187 75.275C62.7187 95.9875 79.5125 112.775 100.219 112.775C120.925 112.775 137.719 95.9813 137.719 75.275C137.719 54.5688 120.931 37.775 100.219 37.775ZM100.219 100.275C86.4312 100.275 74.9313 88.7875 74.9313 75C74.9313 61.2125 86.1438 50 99.9313 50C113.725 50 124.931 61.2125 124.931 75C124.938 88.7875 114.012 100.275 100.219 100.275Z" fill="#D0D757"/>
</g>
<defs>
<clipPath id="clip0_1565_1029">
<rect width="200" height="200" fill="white"/>
</clipPath>
</defs>
</svg>
