<svg width="283" height="118" viewBox="0 0 283 118" fill="none" xmlns="http://www.w3.org/2000/svg">
<rect width="283" height="118" fill="#0E181B"/>
<circle cx="44.5" cy="44.5" r="4.5" fill="#E5E8EA"/>
<circle cx="57.5" cy="44.5" r="4.5" fill="#E5E8EA"/>
<circle cx="70.5" cy="44.5" r="4.5" fill="#E5E8EA"/>
<path d="M73.25 53.75C73.25 55.2688 72.0188 56.5 70.5 56.5C68.9812 56.5 67.75 55.2688 67.75 53.75C67.75 52.2312 68.9812 51 70.5 51C72.0188 51 73.25 52.2312 73.25 53.75Z" fill="#D0D757"/>
<path d="M73.25 61.25C73.25 62.7688 72.0188 64 70.5 64C68.9812 64 67.75 62.7688 67.75 61.25C67.75 59.7312 68.9812 58.5 70.5 58.5C72.0188 58.5 73.25 59.7312 73.25 61.25Z" fill="#D0D757"/>
<path d="M69.5 57.25C69.5 58.7688 68.2688 60 66.75 60C65.2312 60 64 58.7688 64 57.25C64 55.7312 65.2312 54.5 66.75 54.5C68.2688 54.5 69.5 55.7312 69.5 57.25Z" fill="#D0D757"/>
<path d="M77 57.25C77 58.7688 75.7688 60 74.25 60C72.7312 60 71.5 58.7688 71.5 57.25C71.5 55.7312 72.7312 54.5 74.25 54.5C75.7688 54.5 77 55.7312 77 57.25Z" fill="#D0D757"/>
<rect x="66" y="53" width="9" height="9" fill="#0E181B"/>
<circle cx="44.5" cy="57.5" r="4.5" fill="#E5E8EA"/>
<circle cx="57.5" cy="57.5" r="4.5" fill="#E5E8EA"/>
<circle cx="70.5" cy="57.5" r="3.5" fill="#D0D757"/>
<circle cx="44.5" cy="70.5" r="4.5" fill="#E5E8EA"/>
<circle cx="57.5" cy="70.5" r="4.5" fill="#E5E8EA"/>
<circle cx="70.5" cy="70.5" r="4.5" fill="#E5E8EA"/>
<path d="M94.2311 70C93.1005 70 91.9591 70 90.8071 70C89.6551 70 88.5138 70 87.3831 70C87.3191 70 87.2551 69.9893 87.1911 69.968C87.1485 69.9253 87.1058 69.8827 87.0631 69.84C87.0418 69.7973 87.0311 69.7333 87.0311 69.648C87.0311 67.9413 87.0311 66.2453 87.0311 64.56C87.0311 62.8533 87.0311 61.1467 87.0311 59.44C87.0311 57.7333 87.0311 56.0267 87.0311 54.32C87.0311 52.6133 87.0311 50.9173 87.0311 49.232H94.4871L94.2311 49.776C94.2311 50.9493 94.2311 52.1333 94.2311 53.328C94.2311 54.5013 94.2311 55.6853 94.2311 56.88C94.2311 57.9893 94.2311 59.0987 94.2311 60.208C94.2311 61.3173 94.2311 62.4267 94.2311 63.536C94.2311 64.6453 94.2311 65.7547 94.2311 66.864C94.2311 67.44 94.2311 67.9947 94.2311 68.528C94.2311 69.0613 94.2311 69.552 94.2311 70ZM85.4311 47.6H101.431C101.516 47.6 101.58 47.6213 101.623 47.664C101.666 47.6853 101.698 47.7173 101.719 47.76C101.762 47.8027 101.783 47.8667 101.783 47.952C101.783 48.4427 101.783 49.104 101.783 49.936C101.783 50.7467 101.783 51.5573 101.783 52.368C101.783 53.1787 101.783 53.8293 101.783 54.32H85.7831C85.7191 54.32 85.6551 54.3093 85.5911 54.288C85.5485 54.2453 85.5058 54.2027 85.4631 54.16C85.4418 54.096 85.4311 54.032 85.4311 53.968C85.4311 52.9013 85.4311 51.8347 85.4311 50.768C85.4311 49.7013 85.4311 48.6453 85.4311 47.6ZM90.5511 57.2H99.5111C99.6178 57.2 99.7031 57.232 99.7671 57.296C99.8311 57.36 99.8631 57.4453 99.8631 57.552C99.8631 58.0427 99.8631 58.672 99.8631 59.44C99.8631 60.1867 99.8631 60.944 99.8631 61.712C99.8631 62.48 99.8631 63.1093 99.8631 63.6H90.5831L90.5511 57.2ZM110.392 55.792H112.024C112.238 54.9813 112.504 54.2987 112.824 53.744C113.166 53.1893 113.571 52.7733 114.04 52.496C114.531 52.2187 115.107 52.08 115.768 52.08C116.11 52.08 116.355 52.112 116.504 52.176C116.675 52.24 116.792 52.304 116.856 52.368C116.899 52.4107 116.931 52.464 116.952 52.528C116.974 52.5707 116.984 52.6453 116.984 52.752C116.984 52.816 116.984 53.136 116.984 53.712C116.984 54.2667 116.984 54.9493 116.984 55.76C116.984 56.5493 116.984 57.3387 116.984 58.128C116.984 58.9173 116.984 59.5787 116.984 60.112H116.344C115.896 59.9627 115.448 59.856 115 59.792C114.574 59.728 114.147 59.696 113.72 59.696C113.272 59.696 112.846 59.7173 112.44 59.76C112.035 59.8027 111.662 59.8773 111.32 59.984C110.979 60.0907 110.67 60.2293 110.392 60.4V55.792ZM111.384 70C110.808 70 110.094 70 109.24 70C108.387 70 107.534 70 106.68 70C105.827 70 105.112 70 104.536 70C104.472 70 104.419 70 104.376 70C104.334 69.9787 104.291 69.9573 104.248 69.936C104.227 69.8933 104.206 69.8507 104.184 69.808C104.184 69.7653 104.184 69.712 104.184 69.648C104.184 69.52 104.184 69.104 104.184 68.4C104.184 67.696 104.184 66.8213 104.184 65.776C104.184 64.7093 104.184 63.568 104.184 62.352C104.184 61.1147 104.184 59.9093 104.184 58.736C104.184 57.5413 104.184 56.4747 104.184 55.536C104.184 54.96 104.184 54.4053 104.184 53.872C104.184 53.3387 104.184 52.848 104.184 52.4C104.824 52.4 105.571 52.4 106.424 52.4C107.299 52.4 108.152 52.4 108.984 52.4C109.838 52.4 110.52 52.4 111.032 52.4C111.118 52.4 111.182 52.4213 111.224 52.464C111.267 52.4853 111.299 52.5173 111.32 52.56C111.363 52.6027 111.384 52.6667 111.384 52.752C111.384 53.904 111.384 55.056 111.384 56.208C111.384 57.36 111.384 58.512 111.384 59.664C111.384 60.7947 111.384 61.936 111.384 63.088C111.384 64.24 111.384 65.392 111.384 66.544C111.384 67.696 111.384 68.848 111.384 70ZM127.15 51.76C128.984 51.76 130.542 52.0693 131.822 52.688C133.102 53.3067 134.072 54.192 134.734 55.344C135.395 56.4747 135.726 57.8507 135.726 59.472V62.608C135.726 62.672 135.704 62.736 135.662 62.8C135.64 62.8427 135.608 62.8853 135.566 62.928C135.523 62.9493 135.459 62.96 135.374 62.96H127.79C127.512 62.96 127.235 62.96 126.958 62.96C126.68 62.96 126.403 62.96 126.126 62.96H124.046V59.76H129.326C129.326 59.696 129.326 59.632 129.326 59.568C129.326 59.504 129.326 59.408 129.326 59.28C129.326 58.9173 129.283 58.6293 129.198 58.416C129.134 58.1813 129.027 57.9893 128.878 57.84C128.728 57.6693 128.536 57.552 128.302 57.488C128.067 57.4027 127.8 57.36 127.502 57.36C126.947 57.36 126.499 57.5307 126.158 57.872C125.816 58.192 125.646 58.6187 125.646 59.152V62.96C125.646 63.2587 125.678 63.5467 125.742 63.824C125.806 64.08 125.923 64.2933 126.094 64.464C126.286 64.656 126.595 64.8053 127.022 64.912C127.448 65.0187 128.152 65.0613 129.134 65.04C129.774 65.04 130.382 65.0187 130.958 64.976C131.534 64.912 132.12 64.816 132.718 64.688C133.315 64.56 133.944 64.4 134.606 64.208H135.246C135.246 65.0613 135.246 65.904 135.246 66.736C135.246 67.568 135.246 68.4107 135.246 69.264C135.246 69.3067 135.235 69.3493 135.214 69.392C135.214 69.4347 135.192 69.4773 135.15 69.52C134.936 69.7333 134.488 69.9253 133.806 70.096C133.144 70.2667 132.344 70.3947 131.406 70.48C130.467 70.5867 129.464 70.64 128.398 70.64C126.798 70.64 125.39 70.4693 124.174 70.128C122.958 69.808 121.934 69.328 121.102 68.688C120.27 68.0267 119.64 67.216 119.214 66.256C118.808 65.2747 118.606 64.144 118.606 62.864V59.536C118.606 58.384 118.798 57.3387 119.182 56.4C119.587 55.44 120.163 54.6187 120.91 53.936C121.656 53.232 122.552 52.6987 123.598 52.336C124.664 51.952 125.848 51.76 127.15 51.76ZM146.977 51.76C148.812 51.76 150.369 52.0693 151.649 52.688C152.929 53.3067 153.9 54.192 154.561 55.344C155.222 56.4747 155.553 57.8507 155.553 59.472V62.608C155.553 62.672 155.532 62.736 155.489 62.8C155.468 62.8427 155.436 62.8853 155.393 62.928C155.35 62.9493 155.286 62.96 155.201 62.96H147.617C147.34 62.96 147.062 62.96 146.785 62.96C146.508 62.96 146.23 62.96 145.953 62.96H143.873V59.76H149.153C149.153 59.696 149.153 59.632 149.153 59.568C149.153 59.504 149.153 59.408 149.153 59.28C149.153 58.9173 149.11 58.6293 149.025 58.416C148.961 58.1813 148.854 57.9893 148.705 57.84C148.556 57.6693 148.364 57.552 148.129 57.488C147.894 57.4027 147.628 57.36 147.329 57.36C146.774 57.36 146.326 57.5307 145.985 57.872C145.644 58.192 145.473 58.6187 145.473 59.152V62.96C145.473 63.2587 145.505 63.5467 145.569 63.824C145.633 64.08 145.75 64.2933 145.921 64.464C146.113 64.656 146.422 64.8053 146.849 64.912C147.276 65.0187 147.98 65.0613 148.961 65.04C149.601 65.04 150.209 65.0187 150.785 64.976C151.361 64.912 151.948 64.816 152.545 64.688C153.142 64.56 153.772 64.4 154.433 64.208H155.073C155.073 65.0613 155.073 65.904 155.073 66.736C155.073 67.568 155.073 68.4107 155.073 69.264C155.073 69.3067 155.062 69.3493 155.041 69.392C155.041 69.4347 155.02 69.4773 154.977 69.52C154.764 69.7333 154.316 69.9253 153.633 70.096C152.972 70.2667 152.172 70.3947 151.233 70.48C150.294 70.5867 149.292 70.64 148.225 70.64C146.625 70.64 145.217 70.4693 144.001 70.128C142.785 69.808 141.761 69.328 140.929 68.688C140.097 68.0267 139.468 67.216 139.041 66.256C138.636 65.2747 138.433 64.144 138.433 62.864V59.536C138.433 58.384 138.625 57.3387 139.009 56.4C139.414 55.44 139.99 54.6187 140.737 53.936C141.484 53.232 142.38 52.6987 143.425 52.336C144.492 51.952 145.676 51.76 146.977 51.76Z" fill="#E5E8EA"/>
<path d="M167.573 46.96C169.599 46.96 171.253 47.1413 172.533 47.504C173.813 47.8667 174.591 48.1867 174.869 48.464C174.954 48.5493 175.007 48.624 175.029 48.688C175.05 48.752 175.061 48.8587 175.061 49.008C175.061 49.6267 175.061 50.2347 175.061 50.832C175.061 51.4293 175.061 52.0373 175.061 52.656C175.061 53.2533 175.061 53.8613 175.061 54.48C174.079 54.48 173.098 54.48 172.117 54.48C171.135 54.48 170.143 54.48 169.141 54.48C169.013 54.48 168.927 54.448 168.885 54.384C168.842 54.2987 168.821 54.2133 168.821 54.128C168.821 54 168.821 53.8613 168.821 53.712C168.821 53.5627 168.821 53.4027 168.821 53.232C168.821 53.04 168.821 52.8587 168.821 52.688C168.821 52.5173 168.821 52.3467 168.821 52.176L169.749 53.392C169.365 53.2427 169.023 53.1467 168.725 53.104C168.447 53.0613 168.127 53.04 167.765 53.04C167.402 53.04 167.05 53.0507 166.709 53.072C166.367 53.0933 166.069 53.1467 165.813 53.232C165.557 53.296 165.354 53.4027 165.205 53.552C165.055 53.7013 164.981 53.904 164.981 54.16V54.48C164.981 54.672 165.013 54.8533 165.077 55.024C165.141 55.1733 165.269 55.3013 165.461 55.408C165.674 55.5147 165.973 55.6107 166.357 55.696L169.621 56.368C170.773 56.6027 171.722 56.88 172.469 57.2C173.215 57.52 173.802 57.9147 174.229 58.384C174.655 58.8533 174.954 59.4187 175.125 60.08C175.295 60.7413 175.381 61.52 175.381 62.416V64.08C175.381 65.552 174.997 66.7787 174.229 67.76C173.461 68.72 172.373 69.4453 170.965 69.936C169.557 70.4053 167.893 70.64 165.973 70.64C164.735 70.64 163.573 70.544 162.485 70.352C161.397 70.1813 160.469 69.9573 159.701 69.68C158.954 69.4027 158.453 69.1467 158.197 68.912C158.175 68.8693 158.154 68.8267 158.133 68.784C158.111 68.7413 158.101 68.6987 158.101 68.656C158.101 67.952 158.101 67.2587 158.101 66.576C158.101 65.872 158.101 65.1787 158.101 64.496C158.101 63.792 158.101 63.0987 158.101 62.416H158.741C159.829 63.0133 160.959 63.472 162.133 63.792C163.327 64.0907 164.671 64.24 166.165 64.24C167.231 64.24 167.914 64.1333 168.213 63.92C168.511 63.7067 168.661 63.4613 168.661 63.184V62.832C168.661 62.6827 168.618 62.544 168.533 62.416C168.469 62.2667 168.33 62.1387 168.117 62.032C167.925 61.904 167.647 61.808 167.285 61.744L164.373 61.104C163.007 60.8053 161.909 60.464 161.077 60.08C160.266 59.6747 159.658 59.216 159.253 58.704C158.847 58.192 158.581 57.6373 158.453 57.04C158.325 56.4213 158.261 55.7493 158.261 55.024V53.584C158.261 52.5813 158.474 51.6747 158.901 50.864C159.327 50.0533 159.946 49.36 160.757 48.784C161.567 48.208 162.549 47.76 163.701 47.44C164.853 47.12 166.143 46.96 167.573 46.96ZM179.688 69.648C179.688 68.9653 179.688 68.2827 179.688 67.6C179.688 66.896 179.688 66.2027 179.688 65.52C179.688 64.816 179.688 64.1227 179.688 63.44C179.688 62.736 179.688 62.0427 179.688 61.36C179.688 60.656 179.688 59.9627 179.688 59.28H179.208C179.101 59.28 178.995 59.28 178.888 59.28C178.781 59.28 178.675 59.28 178.568 59.28C178.483 59.28 178.387 59.28 178.28 59.28C178.173 59.28 178.067 59.28 177.96 59.28C177.875 59.28 177.789 59.248 177.704 59.184C177.64 59.0987 177.608 59.0133 177.608 58.928C177.608 57.84 177.608 56.752 177.608 55.664C177.608 54.576 177.608 53.488 177.608 52.4C178.205 52.4 178.803 52.4 179.4 52.4C179.997 52.4 180.595 52.4 181.192 52.4C181.789 52.4 182.376 52.4 182.952 52.4C183.549 52.4 184.147 52.4 184.744 52.4C185.341 52.4 185.939 52.4 186.536 52.4C186.6 52.4 186.653 52.4213 186.696 52.464C186.76 52.4853 186.803 52.528 186.824 52.592C186.867 52.6347 186.888 52.688 186.888 52.752C186.888 53.9467 186.888 55.152 186.888 56.368C186.888 57.5627 186.888 58.768 186.888 59.984C186.888 61.1787 186.888 62.384 186.888 63.6C186.888 64.7947 186.888 65.9893 186.888 67.184C186.888 67.4827 186.888 67.792 186.888 68.112C186.888 68.432 186.888 68.752 186.888 69.072C186.888 69.3707 186.888 69.68 186.888 70C185.757 70 184.616 70 183.464 70C182.312 70 181.171 70 180.04 70C179.955 70 179.869 69.968 179.784 69.904C179.72 69.8187 179.688 69.7333 179.688 69.648ZM179.208 44.4C179.656 44.4 180.232 44.4 180.936 44.4C181.64 44.4 182.387 44.4 183.176 44.4C183.987 44.4 184.744 44.4 185.448 44.4C186.152 44.4 186.728 44.4 187.176 44.4C187.283 44.4 187.368 44.432 187.432 44.496C187.496 44.56 187.528 44.6453 187.528 44.752V50.32C187.08 50.32 186.504 50.32 185.8 50.32C185.096 50.32 184.339 50.32 183.528 50.32C182.739 50.32 181.992 50.32 181.288 50.32C180.584 50.32 180.008 50.32 179.56 50.32C179.453 50.32 179.368 50.288 179.304 50.224C179.24 50.16 179.208 50.0747 179.208 49.968V44.4ZM189.436 52.4H203.644C203.75 52.4 203.836 52.432 203.9 52.496C203.964 52.56 203.996 52.6453 203.996 52.752C203.996 53.2427 203.996 53.904 203.996 54.736C203.996 55.5467 203.996 56.3573 203.996 57.168C203.996 57.9787 203.996 58.6293 203.996 59.12H189.788C189.745 59.12 189.702 59.1093 189.66 59.088C189.617 59.0667 189.574 59.0453 189.532 59.024C189.51 58.9813 189.489 58.9387 189.468 58.896C189.446 58.8533 189.436 58.8107 189.436 58.768C189.436 58.2773 189.436 57.6267 189.436 56.816C189.436 56.0053 189.436 55.1947 189.436 54.384C189.436 53.552 189.436 52.8907 189.436 52.4ZM203.996 63.28C203.996 64.3253 203.996 65.3813 203.996 66.448C203.996 67.5147 203.996 68.5813 203.996 69.648C203.996 69.7333 203.964 69.8187 203.9 69.904C203.836 69.968 203.75 70 203.644 70C203.324 70 202.993 70 202.652 70C202.332 70 202.012 70 201.692 70C201.372 70 201.041 70 200.7 70C200.38 70 200.06 70 199.74 70C198.46 70 197.329 69.84 196.348 69.52C195.388 69.2 194.577 68.7307 193.916 68.112C193.276 67.4933 192.796 66.7147 192.476 65.776C192.156 64.816 191.996 63.7173 191.996 62.48C191.996 61.52 191.996 60.5707 191.996 59.632C191.996 58.672 191.996 57.712 191.996 56.752C191.996 55.792 191.996 54.8427 191.996 53.904C191.996 52.944 191.996 51.984 191.996 51.024C191.996 50.448 191.996 49.8827 191.996 49.328C191.996 48.752 191.996 48.176 191.996 47.6C193.126 47.6 194.268 47.6 195.42 47.6C196.572 47.6 197.713 47.6 198.844 47.6C198.908 47.6 198.961 47.6213 199.004 47.664C199.068 47.6853 199.11 47.728 199.132 47.792C199.174 47.8347 199.196 47.888 199.196 47.952C199.196 49.1253 199.196 50.2987 199.196 51.472C199.196 52.624 199.196 53.7867 199.196 54.96C199.196 56.112 199.196 57.2747 199.196 58.448C199.196 59.6 199.196 60.7627 199.196 61.936C199.196 62.1493 199.217 62.3413 199.26 62.512C199.324 62.6827 199.42 62.8213 199.548 62.928C199.676 63.056 199.836 63.152 200.028 63.216C200.241 63.2587 200.486 63.28 200.764 63.28C201.041 63.28 201.318 63.28 201.596 63.28C201.894 63.28 202.182 63.28 202.46 63.28C202.737 63.28 203.014 63.28 203.292 63.28H203.996ZM215.1 51.76C216.934 51.76 218.492 52.0693 219.772 52.688C221.052 53.3067 222.022 54.192 222.684 55.344C223.345 56.4747 223.676 57.8507 223.676 59.472V62.608C223.676 62.672 223.654 62.736 223.612 62.8C223.59 62.8427 223.558 62.8853 223.516 62.928C223.473 62.9493 223.409 62.96 223.324 62.96H215.74C215.462 62.96 215.185 62.96 214.908 62.96C214.63 62.96 214.353 62.96 214.076 62.96H211.996V59.76H217.276C217.276 59.696 217.276 59.632 217.276 59.568C217.276 59.504 217.276 59.408 217.276 59.28C217.276 58.9173 217.233 58.6293 217.148 58.416C217.084 58.1813 216.977 57.9893 216.828 57.84C216.678 57.6693 216.486 57.552 216.252 57.488C216.017 57.4027 215.75 57.36 215.452 57.36C214.897 57.36 214.449 57.5307 214.108 57.872C213.766 58.192 213.596 58.6187 213.596 59.152V62.96C213.596 63.2587 213.628 63.5467 213.692 63.824C213.756 64.08 213.873 64.2933 214.044 64.464C214.236 64.656 214.545 64.8053 214.972 64.912C215.398 65.0187 216.102 65.0613 217.084 65.04C217.724 65.04 218.332 65.0187 218.908 64.976C219.484 64.912 220.07 64.816 220.668 64.688C221.265 64.56 221.894 64.4 222.556 64.208H223.196C223.196 65.0613 223.196 65.904 223.196 66.736C223.196 67.568 223.196 68.4107 223.196 69.264C223.196 69.3067 223.185 69.3493 223.164 69.392C223.164 69.4347 223.142 69.4773 223.1 69.52C222.886 69.7333 222.438 69.9253 221.756 70.096C221.094 70.2667 220.294 70.3947 219.356 70.48C218.417 70.5867 217.414 70.64 216.348 70.64C214.748 70.64 213.34 70.4693 212.124 70.128C210.908 69.808 209.884 69.328 209.052 68.688C208.22 68.0267 207.59 67.216 207.164 66.256C206.758 65.2747 206.556 64.144 206.556 62.864V59.536C206.556 58.384 206.748 57.3387 207.132 56.4C207.537 55.44 208.113 54.6187 208.86 53.936C209.606 53.232 210.502 52.6987 211.548 52.336C212.614 51.952 213.798 51.76 215.1 51.76ZM234.671 64.688C235.226 64.688 235.588 64.624 235.759 64.496C235.951 64.3467 236.047 64.176 236.047 63.984C236.047 63.8773 236.004 63.7707 235.919 63.664C235.855 63.5573 235.716 63.4613 235.503 63.376C235.311 63.2907 235.034 63.2267 234.671 63.184L232.815 62.928C231.258 62.7147 229.988 62.416 229.007 62.032C228.047 61.6267 227.332 61.0827 226.863 60.4C226.415 59.7173 226.191 58.8213 226.191 57.712C226.191 56.7733 226.394 55.9413 226.799 55.216C227.204 54.4907 227.802 53.872 228.591 53.36C229.38 52.8267 230.351 52.432 231.503 52.176C232.676 51.8987 234.01 51.76 235.503 51.76C236.676 51.76 237.69 51.8347 238.543 51.984C239.418 52.112 240.111 52.2613 240.623 52.432C241.156 52.6027 241.476 52.7413 241.583 52.848C241.604 52.8693 241.615 52.9013 241.615 52.944C241.636 52.9653 241.647 52.9973 241.647 53.04C241.668 53.0613 241.679 53.104 241.679 53.168C241.679 54.0853 241.679 54.992 241.679 55.888C241.679 56.784 241.679 57.6907 241.679 58.608H241.039C240.378 58.3947 239.727 58.2027 239.087 58.032C238.447 57.8613 237.775 57.7333 237.071 57.648C236.367 57.5413 235.578 57.488 234.703 57.488C234.234 57.488 233.839 57.52 233.519 57.584C233.199 57.6267 232.954 57.712 232.783 57.84C232.612 57.9467 232.527 58.0853 232.527 58.256C232.527 58.4267 232.58 58.576 232.687 58.704C232.794 58.8107 232.975 58.896 233.231 58.96C233.508 59.0027 233.86 59.056 234.287 59.12L236.207 59.344C237.572 59.4933 238.703 59.8027 239.599 60.272C240.516 60.7413 241.199 61.3387 241.647 62.064C242.095 62.7893 242.319 63.6213 242.319 64.56C242.319 65.9467 242.01 67.088 241.391 67.984C240.772 68.88 239.834 69.552 238.575 70C237.338 70.4267 235.77 70.64 233.871 70.64C233.06 70.64 232.228 70.608 231.375 70.544C230.522 70.48 229.722 70.3947 228.975 70.288C228.25 70.1813 227.642 70.0747 227.151 69.968C226.66 69.84 226.362 69.7333 226.255 69.648C226.234 69.6053 226.212 69.5733 226.191 69.552C226.191 69.5093 226.191 69.4667 226.191 69.424C226.191 68.4853 226.191 67.536 226.191 66.576C226.191 65.616 226.191 64.6667 226.191 63.728H226.831C227.45 63.92 228.036 64.08 228.591 64.208C229.146 64.336 229.722 64.432 230.319 64.496C230.916 64.56 231.567 64.6133 232.271 64.656C232.975 64.6773 233.775 64.688 234.671 64.688Z" fill="#D0D757"/>
</svg>
