<svg width="37" height="35" viewBox="0 0 37 35" fill="none" xmlns="http://www.w3.org/2000/svg">
<circle cx="4.5" cy="4.5" r="4.5" fill="#E5E8EA"/>
<circle cx="17.5" cy="4.5" r="4.5" fill="#E5E8EA"/>
<circle cx="30.5" cy="4.5" r="4.5" fill="#E5E8EA"/>
<path d="M33.25 13.75C33.25 15.2688 32.0188 16.5 30.5 16.5C28.9812 16.5 27.75 15.2688 27.75 13.75C27.75 12.2312 28.9812 11 30.5 11C32.0188 11 33.25 12.2312 33.25 13.75Z" fill="#D0D757"/>
<path d="M33.2501 21.25C33.2501 22.7688 32.0188 24 30.5001 24C28.9813 24 27.7501 22.7688 27.7501 21.25C27.7501 19.7312 28.9813 18.5 30.5001 18.5C32.0188 18.5 33.2501 19.7312 33.2501 21.25Z" fill="#D0D757"/>
<path d="M29.5 17.25C29.5 18.7688 28.2688 20 26.75 20C25.2312 20 24 18.7688 24 17.25C24 15.7312 25.2312 14.5 26.75 14.5C28.2688 14.5 29.5 15.7312 29.5 17.25Z" fill="#D0D757"/>
<path d="M37 17.25C37 18.7688 35.7688 20 34.25 20C32.7312 20 31.5 18.7688 31.5 17.25C31.5 15.7312 32.7312 14.5 34.25 14.5C35.7688 14.5 37 15.7312 37 17.25Z" fill="#D0D757"/>
<rect x="26" y="13" width="9" height="9" fill="#D0D757"/>
<circle cx="4.5" cy="17.5" r="4.5" fill="#E5E8EA"/>
<circle cx="17.5" cy="17.5" r="4.5" fill="#E5E8EA"/>
<circle cx="30.5" cy="17.5" r="3.5" fill="#0E181B"/>
<circle cx="4.5" cy="30.5" r="4.5" fill="#E5E8EA"/>
<circle cx="17.5" cy="30.5" r="4.5" fill="#E5E8EA"/>
<circle cx="30.5" cy="30.5" r="4.5" fill="#E5E8EA"/>
</svg>
